# xmcd
#
# Track frame offsets:
#	150
#	27833
#	45556
#	65701
#	81894
#	101102
#	118440
#	135767
#	155496
#	177412
#	191547
#
# Disc length: 2751 seconds
#
# Revision: 0
# Processed by: cddbd v1.5.1PL0 Copyright (c) Steve Scherf et al.
# Submitted via: audiograbber 1.83.01
#
DISCID=950abd0b
DTITLE=Wynonna - Wynonna Collection - Wynonna - Wynonna Collection
DYEAR=1900
DGENRE=Country
TTITLE0=Heaven Help My Heart
TTITLE1=I Saw The Light
TTITLE2=She Is His Only Need
TTITLE3=Only Love
TTITLE4=No One Else On Earth (Club Mix)
TTITLE5=Is It Over Yet (Single Version)
TTITLE6=Tell Me Why
TTITLE7=My Strongest Weakness
TTITLE8=To Be Loved By You
TTITLE9=Rock Bottom (Single Version)
TTITLE10=Girls With Guitars
EXTD=
EXTT0=
EXTT1=
EXTT2=
EXTT3=
EXTT4=
EXTT5=
EXTT6=
EXTT7=
EXTT8=
EXTT9=
EXTT10=
PLAYORDER=
